<mxfile host="app.diagrams.net" modified="2021-06-02T10:09:02.036Z" agent="5.0 (Macintosh; Intel Mac OS X 10_15_7) AppleWebKit/537.36 (KHTML, like Gecko) Chrome/91.0.4472.77 Safari/537.36" etag="EnW_HKdIZd5bsffCFM6a" version="14.7.3" type="github">
  <diagram id="nq1Uc80QXycCvgsdFcnU" name="第 1 页">
    <mxGraphModel dx="1127" dy="-398" grid="1" gridSize="10" guides="1" tooltips="1" connect="1" arrows="1" fold="1" page="1" pageScale="1" pageWidth="827" pageHeight="1169" math="0" shadow="0">
      <root>
        <mxCell id="0" />
        <mxCell id="1" parent="0" />
        <mxCell id="nq5u3hi-nhyI-TQhAyX6-75" value="" style="rounded=0;whiteSpace=wrap;html=1;strokeWidth=1;dashed=1;" parent="1" vertex="1">
          <mxGeometry x="150" y="1580" width="680" height="430" as="geometry" />
        </mxCell>
        <mxCell id="nq5u3hi-nhyI-TQhAyX6-76" value="" style="rounded=0;whiteSpace=wrap;html=1;strokeWidth=1;dashed=1;" parent="1" vertex="1">
          <mxGeometry x="150" y="1390" width="680" height="170" as="geometry" />
        </mxCell>
        <mxCell id="nq5u3hi-nhyI-TQhAyX6-77" value="获客" style="rounded=0;whiteSpace=wrap;html=1;strokeWidth=1;" parent="1" vertex="1">
          <mxGeometry x="210" y="1450" width="120" height="60" as="geometry" />
        </mxCell>
        <mxCell id="nq5u3hi-nhyI-TQhAyX6-78" style="edgeStyle=orthogonalEdgeStyle;rounded=0;orthogonalLoop=1;jettySize=auto;html=1;strokeWidth=1;dashed=1;" parent="1" source="nq5u3hi-nhyI-TQhAyX6-80" target="nq5u3hi-nhyI-TQhAyX6-77" edge="1">
          <mxGeometry relative="1" as="geometry" />
        </mxCell>
        <mxCell id="nq5u3hi-nhyI-TQhAyX6-79" style="edgeStyle=orthogonalEdgeStyle;rounded=0;orthogonalLoop=1;jettySize=auto;html=1;strokeWidth=1;" parent="1" source="nq5u3hi-nhyI-TQhAyX6-80" target="nq5u3hi-nhyI-TQhAyX6-82" edge="1">
          <mxGeometry relative="1" as="geometry" />
        </mxCell>
        <mxCell id="nq5u3hi-nhyI-TQhAyX6-80" value="营销部" style="rounded=0;whiteSpace=wrap;html=1;strokeWidth=1;" parent="1" vertex="1">
          <mxGeometry x="430" y="1450" width="120" height="60" as="geometry" />
        </mxCell>
        <mxCell id="nq5u3hi-nhyI-TQhAyX6-81" style="edgeStyle=orthogonalEdgeStyle;rounded=0;orthogonalLoop=1;jettySize=auto;html=1;entryX=0.5;entryY=0;entryDx=0;entryDy=0;strokeWidth=1;" parent="1" source="nq5u3hi-nhyI-TQhAyX6-82" target="nq5u3hi-nhyI-TQhAyX6-84" edge="1">
          <mxGeometry relative="1" as="geometry" />
        </mxCell>
        <mxCell id="nq5u3hi-nhyI-TQhAyX6-82" value="客服" style="rounded=0;whiteSpace=wrap;html=1;strokeWidth=1;" parent="1" vertex="1">
          <mxGeometry x="660" y="1450" width="120" height="60" as="geometry" />
        </mxCell>
        <mxCell id="nq5u3hi-nhyI-TQhAyX6-83" style="edgeStyle=orthogonalEdgeStyle;rounded=0;orthogonalLoop=1;jettySize=auto;html=1;strokeWidth=1;" parent="1" source="nq5u3hi-nhyI-TQhAyX6-84" target="nq5u3hi-nhyI-TQhAyX6-86" edge="1">
          <mxGeometry relative="1" as="geometry" />
        </mxCell>
        <mxCell id="nq5u3hi-nhyI-TQhAyX6-84" value="预约" style="rounded=0;whiteSpace=wrap;html=1;strokeWidth=1;" parent="1" vertex="1">
          <mxGeometry x="660" y="1600" width="120" height="60" as="geometry" />
        </mxCell>
        <mxCell id="nq5u3hi-nhyI-TQhAyX6-85" style="edgeStyle=orthogonalEdgeStyle;rounded=0;orthogonalLoop=1;jettySize=auto;html=1;entryX=1;entryY=0.5;entryDx=0;entryDy=0;strokeWidth=1;" parent="1" source="nq5u3hi-nhyI-TQhAyX6-86" target="nq5u3hi-nhyI-TQhAyX6-88" edge="1">
          <mxGeometry relative="1" as="geometry" />
        </mxCell>
        <mxCell id="nq5u3hi-nhyI-TQhAyX6-86" value="前台" style="rounded=0;whiteSpace=wrap;html=1;strokeWidth=1;" parent="1" vertex="1">
          <mxGeometry x="430" y="1600" width="120" height="60" as="geometry" />
        </mxCell>
        <mxCell id="nq5u3hi-nhyI-TQhAyX6-87" style="edgeStyle=orthogonalEdgeStyle;rounded=0;orthogonalLoop=1;jettySize=auto;html=1;entryX=0.5;entryY=0;entryDx=0;entryDy=0;strokeWidth=1;" parent="1" source="nq5u3hi-nhyI-TQhAyX6-88" target="nq5u3hi-nhyI-TQhAyX6-90" edge="1">
          <mxGeometry relative="1" as="geometry" />
        </mxCell>
        <mxCell id="nq5u3hi-nhyI-TQhAyX6-88" value="确认方案" style="rounded=0;whiteSpace=wrap;html=1;strokeWidth=1;" parent="1" vertex="1">
          <mxGeometry x="200" y="1600" width="120" height="60" as="geometry" />
        </mxCell>
        <mxCell id="nq5u3hi-nhyI-TQhAyX6-89" style="edgeStyle=orthogonalEdgeStyle;rounded=0;orthogonalLoop=1;jettySize=auto;html=1;strokeWidth=1;" parent="1" source="nq5u3hi-nhyI-TQhAyX6-90" target="nq5u3hi-nhyI-TQhAyX6-92" edge="1">
          <mxGeometry relative="1" as="geometry" />
        </mxCell>
        <mxCell id="nq5u3hi-nhyI-TQhAyX6-90" value="收费" style="rounded=0;whiteSpace=wrap;html=1;strokeWidth=1;" parent="1" vertex="1">
          <mxGeometry x="200" y="1760" width="120" height="60" as="geometry" />
        </mxCell>
        <mxCell id="nq5u3hi-nhyI-TQhAyX6-91" style="edgeStyle=orthogonalEdgeStyle;rounded=0;orthogonalLoop=1;jettySize=auto;html=1;strokeWidth=1;" parent="1" source="nq5u3hi-nhyI-TQhAyX6-92" target="nq5u3hi-nhyI-TQhAyX6-94" edge="1">
          <mxGeometry relative="1" as="geometry" />
        </mxCell>
        <mxCell id="nq5u3hi-nhyI-TQhAyX6-92" value="治疗" style="rounded=0;whiteSpace=wrap;html=1;strokeWidth=1;" parent="1" vertex="1">
          <mxGeometry x="430" y="1760" width="120" height="60" as="geometry" />
        </mxCell>
        <mxCell id="nq5u3hi-nhyI-TQhAyX6-93" style="edgeStyle=orthogonalEdgeStyle;rounded=0;orthogonalLoop=1;jettySize=auto;html=1;entryX=0.5;entryY=0;entryDx=0;entryDy=0;strokeWidth=1;" parent="1" source="nq5u3hi-nhyI-TQhAyX6-94" target="nq5u3hi-nhyI-TQhAyX6-96" edge="1">
          <mxGeometry relative="1" as="geometry" />
        </mxCell>
        <mxCell id="nq5u3hi-nhyI-TQhAyX6-94" value="送别用户" style="rounded=0;whiteSpace=wrap;html=1;strokeWidth=1;" parent="1" vertex="1">
          <mxGeometry x="660" y="1760" width="120" height="60" as="geometry" />
        </mxCell>
        <mxCell id="nq5u3hi-nhyI-TQhAyX6-95" style="edgeStyle=orthogonalEdgeStyle;rounded=0;orthogonalLoop=1;jettySize=auto;html=1;entryX=1;entryY=0.25;entryDx=0;entryDy=0;strokeWidth=1;dashed=1;" parent="1" source="nq5u3hi-nhyI-TQhAyX6-96" target="nq5u3hi-nhyI-TQhAyX6-84" edge="1">
          <mxGeometry relative="1" as="geometry">
            <Array as="points">
              <mxPoint x="850" y="1950" />
              <mxPoint x="850" y="1615" />
            </Array>
          </mxGeometry>
        </mxCell>
        <mxCell id="nq5u3hi-nhyI-TQhAyX6-96" value="回访" style="rounded=0;whiteSpace=wrap;html=1;strokeWidth=1;" parent="1" vertex="1">
          <mxGeometry x="660" y="1920" width="120" height="60" as="geometry" />
        </mxCell>
        <mxCell id="nq5u3hi-nhyI-TQhAyX6-97" value="获客流程" style="text;html=1;align=center;verticalAlign=middle;resizable=0;points=[];autosize=1;strokeColor=none;" parent="1" vertex="1">
          <mxGeometry x="160" y="1390" width="60" height="20" as="geometry" />
        </mxCell>
        <mxCell id="nq5u3hi-nhyI-TQhAyX6-98" value="门店" style="text;html=1;align=center;verticalAlign=middle;resizable=0;points=[];autosize=1;strokeColor=none;" parent="1" vertex="1">
          <mxGeometry x="160" y="1580" width="40" height="20" as="geometry" />
        </mxCell>
        <mxCell id="nq5u3hi-nhyI-TQhAyX6-99" value="数据库" style="shape=cylinder3;whiteSpace=wrap;html=1;boundedLbl=1;backgroundOutline=1;size=15;strokeColor=#000000;strokeWidth=1;" parent="1" vertex="1">
          <mxGeometry x="1200" y="1428" width="60" height="80" as="geometry" />
        </mxCell>
        <mxCell id="nq5u3hi-nhyI-TQhAyX6-100" value="数据库" style="shape=cylinder3;whiteSpace=wrap;html=1;boundedLbl=1;backgroundOutline=1;size=15;strokeColor=#000000;strokeWidth=1;" parent="1" vertex="1">
          <mxGeometry x="1200" y="1819" width="60" height="80" as="geometry" />
        </mxCell>
        <mxCell id="nq5u3hi-nhyI-TQhAyX6-101" value="" style="endArrow=none;html=1;strokeWidth=1;" parent="1" edge="1">
          <mxGeometry width="50" height="50" relative="1" as="geometry">
            <mxPoint x="910" y="2010" as="sourcePoint" />
            <mxPoint x="910" y="1390" as="targetPoint" />
          </mxGeometry>
        </mxCell>
        <mxCell id="nq5u3hi-nhyI-TQhAyX6-102" value="" style="group" parent="1" vertex="1" connectable="0">
          <mxGeometry x="940" y="1430" width="140" height="80" as="geometry" />
        </mxCell>
        <mxCell id="nq5u3hi-nhyI-TQhAyX6-103" value="" style="rounded=0;whiteSpace=wrap;html=1;strokeColor=#000000;strokeWidth=1;" parent="nq5u3hi-nhyI-TQhAyX6-102" vertex="1">
          <mxGeometry width="120" height="60" as="geometry" />
        </mxCell>
        <mxCell id="nq5u3hi-nhyI-TQhAyX6-104" value="" style="rounded=0;whiteSpace=wrap;html=1;strokeColor=#000000;strokeWidth=1;" parent="nq5u3hi-nhyI-TQhAyX6-102" vertex="1">
          <mxGeometry x="10" y="10" width="120" height="60" as="geometry" />
        </mxCell>
        <mxCell id="nq5u3hi-nhyI-TQhAyX6-105" value="营销服务" style="rounded=0;whiteSpace=wrap;html=1;strokeColor=#000000;strokeWidth=1;" parent="nq5u3hi-nhyI-TQhAyX6-102" vertex="1">
          <mxGeometry x="20" y="20" width="120" height="60" as="geometry" />
        </mxCell>
        <mxCell id="nq5u3hi-nhyI-TQhAyX6-106" value="" style="group" parent="1" vertex="1" connectable="0">
          <mxGeometry x="955" y="1810" width="140" height="80" as="geometry" />
        </mxCell>
        <mxCell id="nq5u3hi-nhyI-TQhAyX6-107" value="" style="rounded=0;whiteSpace=wrap;html=1;strokeColor=#000000;strokeWidth=1;" parent="nq5u3hi-nhyI-TQhAyX6-106" vertex="1">
          <mxGeometry width="120" height="60" as="geometry" />
        </mxCell>
        <mxCell id="nq5u3hi-nhyI-TQhAyX6-108" value="" style="rounded=0;whiteSpace=wrap;html=1;strokeColor=#000000;strokeWidth=1;" parent="nq5u3hi-nhyI-TQhAyX6-106" vertex="1">
          <mxGeometry x="10" y="10" width="120" height="60" as="geometry" />
        </mxCell>
        <mxCell id="nq5u3hi-nhyI-TQhAyX6-109" value="门诊服务" style="rounded=0;whiteSpace=wrap;html=1;strokeColor=#000000;strokeWidth=1;" parent="nq5u3hi-nhyI-TQhAyX6-106" vertex="1">
          <mxGeometry x="20" y="20" width="120" height="60" as="geometry" />
        </mxCell>
        <mxCell id="nq5u3hi-nhyI-TQhAyX6-110" style="edgeStyle=orthogonalEdgeStyle;rounded=0;orthogonalLoop=1;jettySize=auto;html=1;entryX=0;entryY=0;entryDx=0;entryDy=52.5;entryPerimeter=0;strokeWidth=1;dashed=1;" parent="1" source="nq5u3hi-nhyI-TQhAyX6-105" target="nq5u3hi-nhyI-TQhAyX6-99" edge="1">
          <mxGeometry relative="1" as="geometry" />
        </mxCell>
        <mxCell id="nq5u3hi-nhyI-TQhAyX6-111" style="edgeStyle=orthogonalEdgeStyle;rounded=0;orthogonalLoop=1;jettySize=auto;html=1;dashed=1;strokeWidth=1;" parent="1" source="nq5u3hi-nhyI-TQhAyX6-109" target="nq5u3hi-nhyI-TQhAyX6-100" edge="1">
          <mxGeometry relative="1" as="geometry" />
        </mxCell>
      </root>
    </mxGraphModel>
  </diagram>
</mxfile>
